<?xml version="1.0" encoding="UTF-8" standalone="no"?>
<!DOCTYPE svg PUBLIC "-//W3C//DTD SVG 1.1//EN"
 "http://www.w3.org/Graphics/SVG/1.1/DTD/svg11.dtd">
<!-- Generated by graphviz version 2.47.3 (20210619.1520)
 -->
<!-- Title: Tree Pages: 1 -->
<svg width="340pt" height="314pt"
 viewBox="0.00 0.00 340.00 314.00" xmlns="http://www.w3.org/2000/svg" xmlns:xlink="http://www.w3.org/1999/xlink">
<g id="graph0" class="graph" transform="scale(1 1) rotate(0) translate(4 310)">
<title>Tree</title>
<polygon fill="white" stroke="transparent" points="-4,4 -4,-310 336,-310 336,4 -4,4"/>
<!-- 0 -->
<g id="node1" class="node">
<title>0</title>
<path fill="#bddef6" stroke="black" d="M266,-306C266,-306 136,-306 136,-306 130,-306 124,-300 124,-294 124,-294 124,-235 124,-235 124,-229 130,-223 136,-223 136,-223 266,-223 266,-223 272,-223 278,-229 278,-235 278,-235 278,-294 278,-294 278,-300 272,-306 266,-306"/>
<text text-anchor="start" x="132" y="-290.8" font-family="SimSun" font-size="14.00">有自己的房子 ≤ 3.0</text>
<text text-anchor="start" x="159.5" y="-275.8" font-family="SimSun" font-size="14.00">gini = 0.48</text>
<text text-anchor="start" x="155.5" y="-260.8" font-family="SimSun" font-size="14.00">samples = 15</text>
<text text-anchor="start" x="148" y="-245.8" font-family="SimSun" font-size="14.00">value = [6, 9]</text>
<text text-anchor="start" x="163.5" y="-230.8" font-family="SimSun" font-size="14.00">class = 是</text>
</g>
<!-- 1 -->
<g id="node2" class="node">
<title>1</title>
<path fill="#f2c09c" stroke="black" d="M180,-187C180,-187 82,-187 82,-187 76,-187 70,-181 70,-175 70,-175 70,-116 70,-116 70,-110 76,-104 82,-104 82,-104 180,-104 180,-104 186,-104 192,-110 192,-116 192,-116 192,-175 192,-175 192,-181 186,-187 180,-187"/>
<text text-anchor="start" x="83.5" y="-171.8" font-family="SimSun" font-size="14.00">有工作 ≤ 3.0</text>
<text text-anchor="start" x="85.5" y="-156.8" font-family="SimSun" font-size="14.00">gini = 0.444</text>
<text text-anchor="start" x="89.5" y="-141.8" font-family="SimSun" font-size="14.00">samples = 9</text>
<text text-anchor="start" x="78" y="-126.8" font-family="SimSun" font-size="14.00">value = [6, 3]</text>
<text text-anchor="start" x="93.5" y="-111.8" font-family="SimSun" font-size="14.00">class = 否</text>
</g>
<!-- 0&#45;&gt;1 -->
<g id="edge1" class="edge">
<title>0&#45;&gt;1</title>
<path fill="none" stroke="black" d="M176.71,-222.91C171.45,-214.1 165.82,-204.7 160.38,-195.61"/>
<polygon fill="black" stroke="black" points="163.38,-193.81 155.24,-187.02 157.37,-197.4 163.38,-193.81"/>
<text text-anchor="middle" x="149.15" y="-207.57" font-family="Helvetica,sans-Serif" font-size="14.00">True</text>
</g>
<!-- 4 -->
<g id="node5" class="node">
<title>4</title>
<path fill="#399de5" stroke="black" d="M320,-179.5C320,-179.5 222,-179.5 222,-179.5 216,-179.5 210,-173.5 210,-167.5 210,-167.5 210,-123.5 210,-123.5 210,-117.5 216,-111.5 222,-111.5 222,-111.5 320,-111.5 320,-111.5 326,-111.5 332,-117.5 332,-123.5 332,-123.5 332,-167.5 332,-167.5 332,-173.5 326,-179.5 320,-179.5"/>
<text text-anchor="start" x="233" y="-164.3" font-family="SimSun" font-size="14.00">gini = 0.0</text>
<text text-anchor="start" x="229.5" y="-149.3" font-family="SimSun" font-size="14.00">samples = 6</text>
<text text-anchor="start" x="218" y="-134.3" font-family="SimSun" font-size="14.00">value = [0, 6]</text>
<text text-anchor="start" x="233.5" y="-119.3" font-family="SimSun" font-size="14.00">class = 是</text>
</g>
<!-- 0&#45;&gt;4 -->
<g id="edge4" class="edge">
<title>0&#45;&gt;4</title>
<path fill="none" stroke="black" d="M225.29,-222.91C231.95,-211.76 239.2,-199.66 245.91,-188.44"/>
<polygon fill="black" stroke="black" points="249.03,-190.05 251.16,-179.67 243.02,-186.45 249.03,-190.05"/>
<text text-anchor="middle" x="257.25" y="-200.21" font-family="Helvetica,sans-Serif" font-size="14.00">False</text>
</g>
<!-- 2 -->
<g id="node3" class="node">
<title>2</title>
<path fill="#e58139" stroke="black" d="M110,-68C110,-68 12,-68 12,-68 6,-68 0,-62 0,-56 0,-56 0,-12 0,-12 0,-6 6,0 12,0 12,0 110,0 110,0 116,0 122,-6 122,-12 122,-12 122,-56 122,-56 122,-62 116,-68 110,-68"/>
<text text-anchor="start" x="23" y="-52.8" font-family="SimSun" font-size="14.00">gini = 0.0</text>
<text text-anchor="start" x="19.5" y="-37.8" font-family="SimSun" font-size="14.00">samples = 6</text>
<text text-anchor="start" x="8" y="-22.8" font-family="SimSun" font-size="14.00">value = [6, 0]</text>
<text text-anchor="start" x="23.5" y="-7.8" font-family="SimSun" font-size="14.00">class = 否</text>
</g>
<!-- 1&#45;&gt;2 -->
<g id="edge2" class="edge">
<title>1&#45;&gt;2</title>
<path fill="none" stroke="black" d="M104.93,-103.73C99.34,-94.97 93.41,-85.7 87.79,-76.91"/>
<polygon fill="black" stroke="black" points="90.62,-74.84 82.29,-68.3 84.72,-78.61 90.62,-74.84"/>
</g>
<!-- 3 -->
<g id="node4" class="node">
<title>3</title>
<path fill="#399de5" stroke="black" d="M250,-68C250,-68 152,-68 152,-68 146,-68 140,-62 140,-56 140,-56 140,-12 140,-12 140,-6 146,0 152,0 152,0 250,0 250,0 256,0 262,-6 262,-12 262,-12 262,-56 262,-56 262,-62 256,-68 250,-68"/>
<text text-anchor="start" x="163" y="-52.8" font-family="SimSun" font-size="14.00">gini = 0.0</text>
<text text-anchor="start" x="159.5" y="-37.8" font-family="SimSun" font-size="14.00">samples = 3</text>
<text text-anchor="start" x="148" y="-22.8" font-family="SimSun" font-size="14.00">value = [0, 3]</text>
<text text-anchor="start" x="163.5" y="-7.8" font-family="SimSun" font-size="14.00">class = 是</text>
</g>
<!-- 1&#45;&gt;3 -->
<g id="edge3" class="edge">
<title>1&#45;&gt;3</title>
<path fill="none" stroke="black" d="M157.07,-103.73C162.66,-94.97 168.59,-85.7 174.21,-76.91"/>
<polygon fill="black" stroke="black" points="177.28,-78.61 179.71,-68.3 171.38,-74.84 177.28,-78.61"/>
</g>
</g>
</svg>
