<?xml version="1.0" encoding="UTF-8" standalone="no"?>
<!DOCTYPE svg PUBLIC "-//W3C//DTD SVG 1.1//EN"
 "http://www.w3.org/Graphics/SVG/1.1/DTD/svg11.dtd">
<!-- Generated by graphviz version 2.38.0 (20140413.2041)
 -->
<!-- Title: Tree Pages: 1 -->
<svg width="282pt" height="314pt"
 viewBox="0.00 0.00 282.00 314.00" xmlns="http://www.w3.org/2000/svg" xmlns:xlink="http://www.w3.org/1999/xlink">
<g id="graph0" class="graph" transform="scale(1 1) rotate(0) translate(4 310)">
<title>Tree</title>
<polygon fill="white" stroke="none" points="-4,4 -4,-310 278,-310 278,4 -4,4"/>
<!-- 0 -->
<g id="node1" class="node"><title>0</title>
<path fill="#bddef6" stroke="black" d="M215,-306C215,-306 116,-306 116,-306 110,-306 104,-300 104,-294 104,-294 104,-235 104,-235 104,-229 110,-223 116,-223 116,-223 215,-223 215,-223 221,-223 227,-229 227,-235 227,-235 227,-294 227,-294 227,-300 221,-306 215,-306"/>
<text text-anchor="start" x="112" y="-290.8" font-family="Helvetica,sans-Serif" font-size="14.00">有自己的房子 ≤ 3.0</text>
<text text-anchor="start" x="132" y="-275.8" font-family="Helvetica,sans-Serif" font-size="14.00">gini = 0.48</text>
<text text-anchor="start" x="121.5" y="-260.8" font-family="Helvetica,sans-Serif" font-size="14.00">samples = 15</text>
<text text-anchor="start" x="124" y="-245.8" font-family="Helvetica,sans-Serif" font-size="14.00">value = [6, 9]</text>
<text text-anchor="start" x="136.5" y="-230.8" font-family="Helvetica,sans-Serif" font-size="14.00">class = 1</text>
</g>
<!-- 1 -->
<g id="node2" class="node"><title>1</title>
<path fill="#f2c09c" stroke="black" d="M145,-187C145,-187 70,-187 70,-187 64,-187 58,-181 58,-175 58,-175 58,-116 58,-116 58,-110 64,-104 70,-104 70,-104 145,-104 145,-104 151,-104 157,-110 157,-116 157,-116 157,-175 157,-175 157,-181 151,-187 145,-187"/>
<text text-anchor="start" x="71" y="-171.8" font-family="Helvetica,sans-Serif" font-size="14.00">有工作 ≤ 3.0</text>
<text text-anchor="start" x="69.5" y="-156.8" font-family="Helvetica,sans-Serif" font-size="14.00">gini = 0.444</text>
<text text-anchor="start" x="68" y="-141.8" font-family="Helvetica,sans-Serif" font-size="14.00">samples = 9</text>
<text text-anchor="start" x="66" y="-126.8" font-family="Helvetica,sans-Serif" font-size="14.00">value = [6, 3]</text>
<text text-anchor="start" x="78.5" y="-111.8" font-family="Helvetica,sans-Serif" font-size="14.00">class = 0</text>
</g>
<!-- 0&#45;&gt;1 -->
<g id="edge1" class="edge"><title>0&#45;&gt;1</title>
<path fill="none" stroke="black" d="M145.377,-222.907C141.103,-214.286 136.545,-205.09 132.125,-196.175"/>
<polygon fill="black" stroke="black" points="135.165,-194.426 127.587,-187.021 128.893,-197.535 135.165,-194.426"/>
<text text-anchor="middle" x="119.6" y="-207.011" font-family="Helvetica,sans-Serif" font-size="14.00">True</text>
</g>
<!-- 4 -->
<g id="node5" class="node"><title>4</title>
<path fill="#399de5" stroke="black" d="M262,-179.5C262,-179.5 187,-179.5 187,-179.5 181,-179.5 175,-173.5 175,-167.5 175,-167.5 175,-123.5 175,-123.5 175,-117.5 181,-111.5 187,-111.5 187,-111.5 262,-111.5 262,-111.5 268,-111.5 274,-117.5 274,-123.5 274,-123.5 274,-167.5 274,-167.5 274,-173.5 268,-179.5 262,-179.5"/>
<text text-anchor="start" x="195" y="-164.3" font-family="Helvetica,sans-Serif" font-size="14.00">gini = 0.0</text>
<text text-anchor="start" x="185" y="-149.3" font-family="Helvetica,sans-Serif" font-size="14.00">samples = 6</text>
<text text-anchor="start" x="183" y="-134.3" font-family="Helvetica,sans-Serif" font-size="14.00">value = [0, 6]</text>
<text text-anchor="start" x="195.5" y="-119.3" font-family="Helvetica,sans-Serif" font-size="14.00">class = 1</text>
</g>
<!-- 0&#45;&gt;4 -->
<g id="edge4" class="edge"><title>0&#45;&gt;4</title>
<path fill="none" stroke="black" d="M185.97,-222.907C191.534,-211.873 197.573,-199.898 203.183,-188.773"/>
<polygon fill="black" stroke="black" points="206.397,-190.172 207.775,-179.667 200.147,-187.02 206.397,-190.172"/>
<text text-anchor="middle" x="215.599" y="-199.711" font-family="Helvetica,sans-Serif" font-size="14.00">False</text>
</g>
<!-- 2 -->
<g id="node3" class="node"><title>2</title>
<path fill="#e58139" stroke="black" d="M87,-68C87,-68 12,-68 12,-68 6,-68 0,-62 0,-56 0,-56 0,-12 0,-12 0,-6 6,-0 12,-0 12,-0 87,-0 87,-0 93,-0 99,-6 99,-12 99,-12 99,-56 99,-56 99,-62 93,-68 87,-68"/>
<text text-anchor="start" x="20" y="-52.8" font-family="Helvetica,sans-Serif" font-size="14.00">gini = 0.0</text>
<text text-anchor="start" x="10" y="-37.8" font-family="Helvetica,sans-Serif" font-size="14.00">samples = 6</text>
<text text-anchor="start" x="8" y="-22.8" font-family="Helvetica,sans-Serif" font-size="14.00">value = [6, 0]</text>
<text text-anchor="start" x="20.5" y="-7.8" font-family="Helvetica,sans-Serif" font-size="14.00">class = 0</text>
</g>
<!-- 1&#45;&gt;2 -->
<g id="edge2" class="edge"><title>1&#45;&gt;2</title>
<path fill="none" stroke="black" d="M85.9029,-103.726C81.3134,-95.0615 76.4587,-85.8962 71.842,-77.1802"/>
<polygon fill="black" stroke="black" points="74.9118,-75.4982 67.1381,-68.2996 68.726,-78.7748 74.9118,-75.4982"/>
</g>
<!-- 3 -->
<g id="node4" class="node"><title>3</title>
<path fill="#399de5" stroke="black" d="M204,-68C204,-68 129,-68 129,-68 123,-68 117,-62 117,-56 117,-56 117,-12 117,-12 117,-6 123,-0 129,-0 129,-0 204,-0 204,-0 210,-0 216,-6 216,-12 216,-12 216,-56 216,-56 216,-62 210,-68 204,-68"/>
<text text-anchor="start" x="137" y="-52.8" font-family="Helvetica,sans-Serif" font-size="14.00">gini = 0.0</text>
<text text-anchor="start" x="127" y="-37.8" font-family="Helvetica,sans-Serif" font-size="14.00">samples = 3</text>
<text text-anchor="start" x="125" y="-22.8" font-family="Helvetica,sans-Serif" font-size="14.00">value = [0, 3]</text>
<text text-anchor="start" x="137.5" y="-7.8" font-family="Helvetica,sans-Serif" font-size="14.00">class = 1</text>
</g>
<!-- 1&#45;&gt;3 -->
<g id="edge3" class="edge"><title>1&#45;&gt;3</title>
<path fill="none" stroke="black" d="M129.469,-103.726C134.138,-95.0615 139.076,-85.8962 143.773,-77.1802"/>
<polygon fill="black" stroke="black" points="146.896,-78.7632 148.558,-68.2996 140.733,-75.4428 146.896,-78.7632"/>
</g>
</g>
</svg>
